/* XPM */
static char *_636716653428[] = {
/* columns rows colors chars-per-pixel */
"64 64 8 1 ",
"  c #EBEBED",
". c #D9D9DD",
"X c #C5BA9E",
"o c #AA9664",
"O c #BD6934",
"+ c #AA4945",
"@ c #913500",
"# c #522D17",
/* pixels */
"                                                                ",
"                                                                ",
"                                                                ",
"                                                                ",
"                                                                ",
"                                                                ",
"                                                                ",
"                                                                ",
"                                                                ",
"                                                                ",
"                                                                ",
"                                                                ",
"                                                                ",
"                                                                ",
"                                                                ",
"                                                                ",
"                                                                ",
"                                                                ",
"                                                                ",
"                                                                ",
"                                                                ",
"                                                                ",
"                                                                ",
"                                                                ",
"                                                                ",
"                                                                ",
"                                                                ",
"                                                                ",
"                                                                ",
"                                                                ",
"                                                                ",
"                                                                ",
"                                                                ",
"                                                                ",
"                                                                ",
"                                                                ",
"                                                                ",
"                                                                ",
"                                                                ",
"                                                                ",
"                                                                ",
"                                                                ",
"                                                                ",
"                                                                ",
"                                                                ",
"                                                                ",
"              .           .                   .           .     ",
"                   .                               .            ",
"              .           .                   .           .     ",
" .     .     . .   .             .     .     . .   .            ",
"  .           .    .      .       .           .    .      .     ",
" .     .     . .   .      .      .     .     . .   .      .     ",
"  .    .      .    .      .       .    .      .    .      .     ",
"..XX.X.XX.X..XX.XX.X..X.X.XX.X.X..XX.X.XX.X..XX.XX.X..X.X.XX.X.X",
"oOOOOOOOOOOOO+O+oOOOOOOOOOO+O+O+oOOOOOOOOOOOO+O+oOOOOOOOOOO+O+O+",
"XO+++++++++++++@oO+++++++++++++@XO+++++++++++++@oO+++++++++++++@",
"oO+++++++++++++@oO+++++++++++++@oO+++++++++++++@oO+++++++++++++@",
"o+@+@+@@+@@@@@@@X+++@+@@+@+@@@@@o+@+@+@@+@@@@@@@X+++@+@@+@+@@@@@",
"XoXoooXoXXoooXoXXXooXooXoXXoooXXXoXoooXoXXoooXoXXXooXooXoXXoooXX",
"OOOO+O+oOOOOOOOOOO+O+O+XOOOOOOOOOOOO+O+oOOOOOOOOOO+O+O+XOOOOOOOO",
"++++++@XO+++++++++++++@oO+++++++++++++@XO+++++++++++++@oO+++++++",
"++++++@oO+++++++++++++@oO+++++++++++++@oO+++++++++++++@oO+++++++",
"+@@@@@@o+++@+@+@@@+@@@@o++@+@@+@+@@@@@@o+++@+@+@@@+@@@@o++@+@@+@",
"################################################################"
};
